<svg width="52" height="52" viewBox="0 0 52 52" fill="none" xmlns="http://www.w3.org/2000/svg">
<g clip-path="url(#clip0_489_3188)">
<rect width="51.123" height="51.123" rx="7" fill="#FF0000"/>
<path d="M45.123 0H6C2.691 0 0 2.691 0 6V45.123C0 48.432 2.691 51.123 6 51.123H45.123C48.432 51.123 51.123 48.432 51.123 45.123V6C51.123 2.691 48.431 0 45.123 0ZM49.123 45.123C49.123 47.329 47.329 49.123 45.123 49.123H6C3.794 49.123 2 47.329 2 45.123V6C2 3.794 3.794 2 6 2H45.123C47.329 2 49.123 3.794 49.123 6V45.123ZM36.791 15.746L26.976 25.561L36.791 35.376C37.182 35.767 37.182 36.399 36.791 36.79C36.596 36.985 36.34 37.083 36.084 37.083C35.828 37.083 35.572 36.985 35.377 36.79L25.562 26.975L15.747 36.79C15.552 36.985 15.296 37.083 15.04 37.083C14.784 37.083 14.528 36.985 14.333 36.79C13.942 36.399 13.942 35.767 14.333 35.376L24.148 25.561L14.333 15.746C13.942 15.355 13.942 14.723 14.333 14.332C14.724 13.941 15.356 13.941 15.747 14.332L25.562 24.147L35.377 14.332C35.768 13.941 36.4 13.941 36.791 14.332C37.182 14.723 37.181 15.355 36.791 15.746Z" fill="black"/>
</g>
<defs>
<clipPath id="clip0_489_3188">
<rect width="51.123" height="51.123" rx="7" fill="white"/>
</clipPath>
</defs>
</svg>
